<svg xmlns="http://www.w3.org/2000/svg" viewBox="0 0 1200 330" role="img" aria-labelledby="title desc"><title id="title">Agentic AI systems, made visible</title><desc id="desc">A visual system connecting agentic AI, data, APIs, and human decisions.</desc><rect width="1200" height="330" rx="26" fill="#111827"/><path d="M0 272C145 200 190 306 322 242s194-100 319-30 185 35 281-29 176-54 278-112" fill="none" stroke="#273554" stroke-width="2"/><path d="M0 290C145 218 190 324 322 260s194-100 319-30 185 35 281-29 176-54 278-112" fill="none" stroke="#1c5360" stroke-width="2"/><g stroke="#59d4c0" stroke-width="5" fill="#111827"><circle cx="145" cy="208" r="17"/><circle cx="420" cy="178" r="17"/><circle cx="715" cy="214" r="17"/><circle cx="1000" cy="118" r="17"/></g><path d="M162 208h241M437 178l261 36M732 214l251-96" stroke="#e9a875" stroke-width="5" stroke-dasharray="8 12"/><circle cx="145" cy="208" r="28" fill="none" stroke="#59d4c0" stroke-opacity=".22" stroke-width="2"/><circle cx="715" cy="214" r="28" fill="none" stroke="#59d4c0" stroke-opacity=".22" stroke-width="2"/><text x="62" y="72" fill="#fff8ed" font-family="Georgia,serif" font-size="42" font-weight="700">Agentic AI systems, made visible.</text><text x="65" y="112" fill="#b9c2d3" font-family="Arial,sans-serif" font-size="17" letter-spacing="2">AI PRODUCTS  ·  DATA SYSTEMS  ·  RELIABLE APIS  ·  HUMAN CONTROL</text><g fill="#59d4c0" font-family="Arial,sans-serif" font-size="12" font-weight="700" letter-spacing="1"><text x="105" y="252">INPUT</text><text x="385" y="222">REASON</text><text x="680" y="258">EVIDENCE</text><text x="966" y="162">DECISION</text></g></svg>
